M48
; DRILL file KiCad 10.0.1 date 2026-04-17T14:28:08
; FORMAT={-:-/ absolute / inch / decimal}
; #@! TF.CreationDate,2026-04-17T14:28:08+09:00
; #@! TF.GenerationSoftware,Kicad,Pcbnew,10.0.1
; #@! TF.FileFunction,Plated,1,2,PTH
FMAT,2
INCH
; #@! TA.AperFunction,Plated,PTH,ViaDrill
T1C0.0118
; #@! TA.AperFunction,Plated,PTH,ComponentDrill
T2C0.0197
; #@! TA.AperFunction,Plated,PTH,ComponentDrill
T3C0.0374
; #@! TA.AperFunction,Plated,PTH,ComponentDrill
T4C0.0394
; #@! TA.AperFunction,Plated,PTH,ComponentDrill
T5C0.0748
; #@! TA.AperFunction,Plated,PTH,ComponentDrill
T6C0.1063
; #@! TA.AperFunction,Plated,PTH,ComponentDrill
T7C0.1260
%
G90
G05
T1
X2.8Y-2.0
X2.8Y-2.1
X2.8Y-2.2
X2.8Y-2.3
X2.8Y-2.7
X2.8Y-2.8
X2.8Y-3.25
X2.8Y-3.35
X2.8Y-3.45
X2.8Y-3.55
X2.8Y-3.65
X2.85Y-3.3
X2.85Y-3.4
X2.85Y-3.5
X2.85Y-3.6
X2.9Y-2.0
X2.9Y-2.1
X2.9Y-2.2
X2.9Y-2.3
X2.9Y-2.7
X2.9Y-2.8
X2.9Y-3.25
X2.9Y-3.35
X2.9Y-3.45
X2.9Y-3.55
X3.0Y-2.0
X3.0Y-2.1
X3.0Y-2.2
X3.0Y-2.3
X3.0Y-2.7
X3.0Y-2.8
X3.0Y-3.35
X3.0Y-3.4
X3.0Y-3.45
X3.05Y-3.5
X3.1Y-2.0
X3.1Y-2.1
X3.1Y-2.2
X3.1Y-2.3
X3.1Y-2.7
X3.1Y-2.8
X3.2Y-2.0
X3.2Y-2.1
X3.2Y-2.2
X3.2Y-2.3
X3.2Y-2.7
X3.2Y-2.8
X3.3Y-2.0
X3.3Y-2.1
X3.3Y-2.2
X3.3Y-2.7
X3.3Y-2.8
X3.3Y-3.5
X3.3515Y-3.6835
X3.3572Y-3.5459
X3.6Y-3.5
X3.616Y-2.9588
X3.6345Y-3.6835
X3.6376Y-3.5983
X3.6697Y-2.3268
X3.7Y-2.6
X3.7Y-2.7
X3.7Y-3.045
X3.7Y-3.1
X3.7382Y-2.5302
X3.7816Y-2.1776
X3.8Y-2.6
X3.8Y-2.7
X3.8Y-2.9
X3.8Y-3.4439
X3.8172Y-3.6358
X3.8444Y-2.3961
X3.85Y-3.6406
X3.8542Y-1.9659
X3.895Y-2.675
X3.895Y-2.7
X3.898Y-3.544
X3.9Y-2.9
X3.9Y-3.5
X3.9389Y-3.2949
X3.9432Y-2.9816
X3.9517Y-2.6783
X3.9781Y-2.5696
X3.985Y-3.01
X4.0141Y-3.4052
X4.0189Y-2.165
X4.0488Y-3.1752
X4.0562Y-2.8062
X4.06Y-2.005
X4.0652Y-2.1243
X4.0673Y-2.2766
X4.0785Y-2.8702
X4.08Y-3.4251
X4.085Y-3.01
X4.1269Y-2.727
X4.1282Y-2.164
X4.1331Y-3.6774
X4.135Y-2.7726
X4.1609Y-3.0593
X4.1628Y-2.7323
X4.17Y-2.585
X4.1742Y-2.1606
X4.1815Y-3.0052
X4.1834Y-3.6078
X4.1876Y-2.903
X4.1887Y-3.5463
X4.2017Y-2.5173
X4.2153Y-2.5456
X4.2185Y-2.1582
X4.2324Y-2.8324
X4.2477Y-3.4415
X4.2524Y-2.2801
X4.265Y-2.595
X4.2681Y-2.51
X4.2705Y-2.4712
X4.2726Y-2.8823
X4.275Y-2.44
X4.285Y-3.01
X4.3006Y-2.7223
X4.3052Y-2.8204
X4.3185Y-3.3688
X4.33Y-2.76
X4.3414Y-2.635
X4.3414Y-2.69
X4.35Y-3.45
X4.3676Y-3.2436
X4.38Y-2.626
X4.3974Y-2.2268
X4.4024Y-3.1713
X4.405Y-2.7407
X4.41Y-3.01
X4.4338Y-2.2735
X4.435Y-3.5414
X4.45Y-3.45
X4.45Y-3.5
X4.4504Y-3.1927
X4.4527Y-2.6764
X4.455Y-2.37
X4.475Y-3.6052
X4.4753Y-3.6848
X4.5046Y-3.1713
X4.51Y-3.01
X4.5186Y-2.8366
X4.5236Y-2.049
X4.5475Y-2.0807
X4.56Y-3.4392
X4.61Y-3.01
X4.6268Y-2.4659
X4.6413Y-2.8351
X4.6621Y-3.6436
X4.665Y-3.4251
X4.6704Y-2.5394
X4.6898Y-3.4589
X4.6942Y-2.834
X4.695Y-3.49
X4.7011Y-2.2189
X4.703Y-3.1713
X4.71Y-3.01
X4.73Y-3.4157
X4.7465Y-2.449
X4.7536Y-3.44
X4.7911Y-3.3114
X4.8096Y-2.8557
X4.835Y-3.01
X4.8784Y-3.3764
X4.935Y-3.01
X4.935Y-3.655
X4.98Y-3.525
X4.9831Y-3.6052
X4.9878Y-3.1847
X5.0Y-3.45
X5.015Y-3.825
X5.0286Y-3.525
X5.035Y-3.01
X5.1Y-1.7
X5.1Y-1.8
X5.1105Y-3.4467
X5.13Y-2.9518
X5.135Y-3.01
X5.146Y-2.2882
X5.155Y-3.6519
X5.2Y-1.7
X5.2Y-1.8
X5.2108Y-3.4745
X5.2769Y-3.2073
X5.2971Y-3.5425
X5.3Y-1.7
X5.3Y-1.8
X5.3Y-2.6
X5.3Y-2.7
X5.3Y-2.8
X5.3Y-2.9
X5.3Y-3.0
X5.3259Y-3.4257
X5.35Y-3.25
X5.4Y-2.6
X5.4Y-2.7
X5.4Y-2.8
X5.4Y-2.9
X5.4Y-3.0
X5.45Y-3.25
X5.4656Y-3.6536
X5.5Y-2.9
X5.5Y-3.0
X5.539Y-3.439
X5.6Y-2.9
X5.6Y-3.0
X5.6Y-3.25
X5.6Y-3.5
X5.6238Y-2.7159
X5.7Y-1.7
X5.7Y-1.8
X5.7Y-2.9
X5.7Y-3.0
X5.7Y-3.25
X5.7674Y-3.6532
X5.8Y-1.7
X5.8Y-1.8
X5.8Y-2.8
X5.8Y-2.9
X5.8Y-3.0
X5.9Y-1.7
X5.9Y-1.8
X5.9Y-2.9
X5.9Y-3.0
X5.9Y-3.25
X6.0Y-3.0
X6.0Y-3.25
X6.006Y-2.4812
X6.1119Y-3.5561
X6.1493Y-3.514
X6.15Y-3.25
X6.1532Y-3.5623
X6.25Y-3.25
X6.3296Y-2.8606
X6.4482Y-3.5503
X6.45Y-3.3
X6.45Y-3.4
X6.45Y-3.5
X6.5Y-3.24
X6.5Y-3.27
X6.5Y-3.35
X6.5Y-3.45
X6.55Y-3.3
X6.55Y-3.4
X6.55Y-3.5
X6.55Y-3.6
X6.6Y-3.25
X6.6Y-3.35
X6.6Y-3.45
X6.6Y-3.55
T2
X2.8189Y-1.7323
X2.8189Y-3.7795
X2.8466Y-1.6655
X2.8466Y-1.7991
X2.8466Y-3.7127
X2.8466Y-3.8463
X2.9134Y-1.6378
X2.9134Y-1.8268
X2.9134Y-3.685
X2.9134Y-3.874
X2.9802Y-1.6655
X2.9802Y-1.7991
X2.9802Y-3.7127
X2.9802Y-3.8463
X3.0079Y-1.7323
X3.0079Y-3.7795
X6.4409Y-1.7323
X6.4409Y-3.7795
X6.4686Y-1.6655
X6.4686Y-1.7991
X6.4686Y-3.7127
X6.4686Y-3.8463
X6.5354Y-1.6378
X6.5354Y-1.8268
X6.5354Y-3.685
X6.5354Y-3.874
X6.6022Y-1.6655
X6.6022Y-1.7991
X6.6022Y-3.7127
X6.6022Y-3.8463
X6.6299Y-1.7323
X6.6299Y-3.7795
T3
X3.1693Y-2.4213
X3.1693Y-2.5197
X3.1693Y-2.9921
X3.1693Y-3.0906
X3.763Y-1.75
X3.8614Y-1.75
X3.9598Y-1.75
X4.0583Y-1.75
X4.4531Y-1.75
X4.5516Y-1.75
X4.65Y-1.75
X4.7484Y-1.75
X6.2795Y-2.0374
X6.2795Y-2.1358
X6.2795Y-2.3917
X6.2795Y-2.4902
T4
X3.4719Y-2.2388
X3.49Y-2.84
X3.5719Y-2.2388
X3.59Y-2.84
X4.79Y-2.719
X4.8731Y-2.35
X4.8731Y-2.45
X4.89Y-2.719
X4.99Y-2.719
X5.0135Y-1.7197
X5.07Y-2.35
X5.07Y-2.45
X5.09Y-2.719
X5.19Y-2.719
X5.4465Y-1.7197
X5.5769Y-1.72
X6.01Y-1.72
T5
X5.1316Y-2.1134
X5.3284Y-2.1134
X5.695Y-2.1137
X5.8919Y-2.1137
T6
X3.18Y-3.5516
X3.18Y-3.7484
X3.4609Y-3.5516
X3.4609Y-3.7484
X3.7418Y-3.5516
X3.7418Y-3.7484
X4.0227Y-3.5516
X4.0227Y-3.7484
X4.3036Y-3.5516
X4.3036Y-3.7484
X4.5845Y-3.5516
X4.5845Y-3.7484
X4.8655Y-3.5516
X4.8655Y-3.7484
X5.1464Y-3.5516
X5.1464Y-3.7484
X5.4273Y-3.5516
X5.4273Y-3.7484
X5.7082Y-3.5516
X5.7082Y-3.7484
X5.9891Y-3.5516
X5.9891Y-3.7484
X6.27Y-3.5516
X6.27Y-3.7484
T7
X2.9134Y-1.7323
X2.9134Y-3.7795
X6.5354Y-1.7323
X6.5354Y-3.7795
M30
