%TF.GenerationSoftware,KiCad,Pcbnew,10.0.1*%
%TF.CreationDate,2026-04-17T14:28:08+09:00*%
%TF.ProjectId,Altair_solenoid_valve_V1,416c7461-6972-45f7-936f-6c656e6f6964,rev?*%
%TF.SameCoordinates,Original*%
%TF.FileFunction,Paste,Bot*%
%TF.FilePolarity,Positive*%
%FSLAX46Y46*%
G04 Gerber Fmt 4.6, Leading zero omitted, Abs format (unit mm)*
G04 Created by KiCad (PCBNEW 10.0.1) date 2026-04-17 14:28:08*
%MOMM*%
%LPD*%
G01*
G04 APERTURE LIST*
G04 Aperture macros list*
%AMRoundRect*
0 Rectangle with rounded corners*
0 $1 Rounding radius*
0 $2 $3 $4 $5 $6 $7 $8 $9 X,Y pos of 4 corners*
0 Add a 4 corners polygon primitive as box body*
4,1,4,$2,$3,$4,$5,$6,$7,$8,$9,$2,$3,0*
0 Add four circle primitives for the rounded corners*
1,1,$1+$1,$2,$3*
1,1,$1+$1,$4,$5*
1,1,$1+$1,$6,$7*
1,1,$1+$1,$8,$9*
0 Add four rect primitives between the rounded corners*
20,1,$1+$1,$2,$3,$4,$5,0*
20,1,$1+$1,$4,$5,$6,$7,0*
20,1,$1+$1,$6,$7,$8,$9,0*
20,1,$1+$1,$8,$9,$2,$3,0*%
G04 Aperture macros list end*
%ADD10RoundRect,0.250000X1.000000X0.650000X-1.000000X0.650000X-1.000000X-0.650000X1.000000X-0.650000X0*%
%ADD11RoundRect,0.150000X-0.587500X-0.150000X0.587500X-0.150000X0.587500X0.150000X-0.587500X0.150000X0*%
%ADD12RoundRect,0.200000X-0.275000X0.200000X-0.275000X-0.200000X0.275000X-0.200000X0.275000X0.200000X0*%
G04 APERTURE END LIST*
D10*
%TO.C,D15*%
X154146000Y-85598000D03*
X150146000Y-85598000D03*
%TD*%
D11*
%TO.C,Q8*%
X133682500Y-93459000D03*
X133682500Y-91559000D03*
X135557500Y-92509000D03*
%TD*%
%TO.C,Q10*%
X147906500Y-93340000D03*
X147906500Y-91440000D03*
X149781500Y-92390000D03*
%TD*%
%TO.C,Q1*%
X83644500Y-93406000D03*
X83644500Y-91506000D03*
X85519500Y-92456000D03*
%TD*%
%TO.C,Q12*%
X163400500Y-91120000D03*
X163400500Y-89220000D03*
X165275500Y-90170000D03*
%TD*%
D12*
%TO.C,R22*%
X109058400Y-81471000D03*
X109058400Y-83121000D03*
%TD*%
%TO.C,R27*%
X117024700Y-81471000D03*
X117024700Y-83121000D03*
%TD*%
D10*
%TO.C,D9*%
X111474000Y-85598000D03*
X107474000Y-85598000D03*
%TD*%
D12*
%TO.C,R28*%
X114369300Y-81471000D03*
X114369300Y-83121000D03*
%TD*%
D10*
%TO.C,D14*%
X147034000Y-85598000D03*
X143034000Y-85598000D03*
%TD*%
D11*
%TO.C,Q11*%
X155018500Y-93459000D03*
X155018500Y-91559000D03*
X156893500Y-92509000D03*
%TD*%
%TO.C,Q2*%
X90756500Y-93406000D03*
X90756500Y-91506000D03*
X92631500Y-92456000D03*
%TD*%
D10*
%TO.C,D16*%
X161258000Y-85598000D03*
X157258000Y-85598000D03*
%TD*%
D12*
%TO.C,R25*%
X101092000Y-81471000D03*
X101092000Y-83121000D03*
%TD*%
%TO.C,R48*%
X124991100Y-81471000D03*
X124991100Y-83121000D03*
%TD*%
D10*
%TO.C,D5*%
X82518000Y-85598000D03*
X78518000Y-85598000D03*
%TD*%
D11*
%TO.C,Q5*%
X112346500Y-93472000D03*
X112346500Y-91572000D03*
X114221500Y-92522000D03*
%TD*%
D12*
%TO.C,R26*%
X119680200Y-81471000D03*
X119680200Y-83121000D03*
%TD*%
%TO.C,R46*%
X130302000Y-81471000D03*
X130302000Y-83121000D03*
%TD*%
D10*
%TO.C,D6*%
X89884000Y-85598000D03*
X85884000Y-85598000D03*
%TD*%
D12*
%TO.C,R47*%
X127646500Y-81471000D03*
X127646500Y-83121000D03*
%TD*%
%TO.C,R29*%
X111713800Y-81471000D03*
X111713800Y-83121000D03*
%TD*%
D10*
%TO.C,D8*%
X104108000Y-85598000D03*
X100108000Y-85598000D03*
%TD*%
D12*
%TO.C,R23*%
X106402900Y-81471000D03*
X106402900Y-83121000D03*
%TD*%
D11*
%TO.C,Q7*%
X126570500Y-93472000D03*
X126570500Y-91572000D03*
X128445500Y-92522000D03*
%TD*%
D10*
%TO.C,D11*%
X125698000Y-85598000D03*
X121698000Y-85598000D03*
%TD*%
D12*
%TO.C,R49*%
X122335600Y-81471000D03*
X122335600Y-83121000D03*
%TD*%
D11*
%TO.C,Q4*%
X104980500Y-93406000D03*
X104980500Y-91506000D03*
X106855500Y-92456000D03*
%TD*%
D10*
%TO.C,D10*%
X118586000Y-85598000D03*
X114586000Y-85598000D03*
%TD*%
%TO.C,D12*%
X132778000Y-85598000D03*
X128778000Y-85598000D03*
%TD*%
%TO.C,D7*%
X96996000Y-85598000D03*
X92996000Y-85598000D03*
%TD*%
D11*
%TO.C,Q3*%
X97868500Y-93406000D03*
X97868500Y-91506000D03*
X99743500Y-92456000D03*
%TD*%
D12*
%TO.C,R24*%
X103747500Y-81471000D03*
X103747500Y-83121000D03*
%TD*%
D11*
%TO.C,Q9*%
X140794500Y-93406000D03*
X140794500Y-91506000D03*
X142669500Y-92456000D03*
%TD*%
D10*
%TO.C,D13*%
X139922000Y-85598000D03*
X135922000Y-85598000D03*
%TD*%
D11*
%TO.C,Q6*%
X119458500Y-93406000D03*
X119458500Y-91506000D03*
X121333500Y-92456000D03*
%TD*%
M02*
