%TF.GenerationSoftware,KiCad,Pcbnew,10.0.1*%
%TF.CreationDate,2026-04-17T14:28:07+09:00*%
%TF.ProjectId,Altair_solenoid_valve_V1,416c7461-6972-45f7-936f-6c656e6f6964,rev?*%
%TF.SameCoordinates,Original*%
%TF.FileFunction,Paste,Top*%
%TF.FilePolarity,Positive*%
%FSLAX46Y46*%
G04 Gerber Fmt 4.6, Leading zero omitted, Abs format (unit mm)*
G04 Created by KiCad (PCBNEW 10.0.1) date 2026-04-17 14:28:07*
%MOMM*%
%LPD*%
G01*
G04 APERTURE LIST*
G04 Aperture macros list*
%AMRoundRect*
0 Rectangle with rounded corners*
0 $1 Rounding radius*
0 $2 $3 $4 $5 $6 $7 $8 $9 X,Y pos of 4 corners*
0 Add a 4 corners polygon primitive as box body*
4,1,4,$2,$3,$4,$5,$6,$7,$8,$9,$2,$3,0*
0 Add four circle primitives for the rounded corners*
1,1,$1+$1,$2,$3*
1,1,$1+$1,$4,$5*
1,1,$1+$1,$6,$7*
1,1,$1+$1,$8,$9*
0 Add four rect primitives between the rounded corners*
20,1,$1+$1,$2,$3,$4,$5,0*
20,1,$1+$1,$4,$5,$6,$7,0*
20,1,$1+$1,$6,$7,$8,$9,0*
20,1,$1+$1,$8,$9,$2,$3,0*%
G04 Aperture macros list end*
%ADD10RoundRect,0.200000X0.275000X-0.200000X0.275000X0.200000X-0.275000X0.200000X-0.275000X-0.200000X0*%
%ADD11RoundRect,0.225000X0.250000X-0.225000X0.250000X0.225000X-0.250000X0.225000X-0.250000X-0.225000X0*%
%ADD12RoundRect,0.137500X-0.137500X0.662500X-0.137500X-0.662500X0.137500X-0.662500X0.137500X0.662500X0*%
%ADD13RoundRect,0.218750X0.218750X0.256250X-0.218750X0.256250X-0.218750X-0.256250X0.218750X-0.256250X0*%
%ADD14RoundRect,0.150000X0.825000X0.150000X-0.825000X0.150000X-0.825000X-0.150000X0.825000X-0.150000X0*%
%ADD15RoundRect,0.200000X0.200000X0.275000X-0.200000X0.275000X-0.200000X-0.275000X0.200000X-0.275000X0*%
%ADD16RoundRect,0.225000X-0.250000X0.225000X-0.250000X-0.225000X0.250000X-0.225000X0.250000X0.225000X0*%
%ADD17RoundRect,0.225000X0.225000X0.250000X-0.225000X0.250000X-0.225000X-0.250000X0.225000X-0.250000X0*%
%ADD18RoundRect,0.250000X-1.125000X1.275000X-1.125000X-1.275000X1.125000X-1.275000X1.125000X1.275000X0*%
%ADD19RoundRect,0.250000X-0.350000X0.850000X-0.350000X-0.850000X0.350000X-0.850000X0.350000X0.850000X0*%
%ADD20RoundRect,0.200000X-0.275000X0.200000X-0.275000X-0.200000X0.275000X-0.200000X0.275000X0.200000X0*%
%ADD21RoundRect,0.075000X-0.700000X-0.075000X0.700000X-0.075000X0.700000X0.075000X-0.700000X0.075000X0*%
%ADD22RoundRect,0.075000X-0.075000X-0.700000X0.075000X-0.700000X0.075000X0.700000X-0.075000X0.700000X0*%
%ADD23RoundRect,0.225000X-0.225000X-0.250000X0.225000X-0.250000X0.225000X0.250000X-0.225000X0.250000X0*%
%ADD24RoundRect,0.200000X-0.200000X-0.275000X0.200000X-0.275000X0.200000X0.275000X-0.200000X0.275000X0*%
G04 APERTURE END LIST*
D10*
%TO.C,R14*%
X108712000Y-86423000D03*
X108712000Y-84773000D03*
%TD*%
%TO.C,R40*%
X125222000Y-86423000D03*
X125222000Y-84773000D03*
%TD*%
D11*
%TO.C,C4*%
X97323000Y-63755000D03*
X97323000Y-62205000D03*
%TD*%
D10*
%TO.C,R16*%
X103632000Y-86423000D03*
X103632000Y-84773000D03*
%TD*%
D12*
%TO.C,U7*%
X131699000Y-76454000D03*
X130429000Y-76454000D03*
X129159000Y-76454000D03*
X127889000Y-76454000D03*
X126619000Y-76454000D03*
X125349000Y-76454000D03*
X124079000Y-76454000D03*
X122809000Y-76454000D03*
X122809000Y-82954000D03*
X124079000Y-82954000D03*
X125349000Y-82954000D03*
X126619000Y-82954000D03*
X127889000Y-82954000D03*
X129159000Y-82954000D03*
X130429000Y-82954000D03*
X131699000Y-82954000D03*
%TD*%
D13*
%TO.C,D3*%
X162295000Y-69660000D03*
X160720000Y-69660000D03*
%TD*%
D14*
%TO.C,U3*%
X92121000Y-80041000D03*
X92121000Y-78771000D03*
X92121000Y-77501000D03*
X92121000Y-76231000D03*
X87171000Y-76231000D03*
X87171000Y-77501000D03*
X87171000Y-78771000D03*
X87171000Y-80041000D03*
%TD*%
D10*
%TO.C,R7*%
X107442000Y-74496000D03*
X107442000Y-72846000D03*
%TD*%
D15*
%TO.C,R3*%
X166370000Y-69660000D03*
X164720000Y-69660000D03*
%TD*%
D10*
%TO.C,R12*%
X115824000Y-74624000D03*
X115824000Y-72974000D03*
%TD*%
D13*
%TO.C,D4*%
X143631500Y-59725000D03*
X142056500Y-59725000D03*
%TD*%
D15*
%TO.C,R1*%
X166370000Y-73660000D03*
X164720000Y-73660000D03*
%TD*%
%TO.C,R2*%
X166370000Y-71660000D03*
X164720000Y-71660000D03*
%TD*%
D10*
%TO.C,R11*%
X118364000Y-74624000D03*
X118364000Y-72974000D03*
%TD*%
%TO.C,R10*%
X120904000Y-74624000D03*
X120904000Y-72974000D03*
%TD*%
%TO.C,R33*%
X123952000Y-74676000D03*
X123952000Y-73026000D03*
%TD*%
D16*
%TO.C,C6*%
X114323000Y-58205000D03*
X114323000Y-59755000D03*
%TD*%
D10*
%TO.C,R38*%
X130302000Y-86423000D03*
X130302000Y-84773000D03*
%TD*%
%TO.C,R6*%
X110236000Y-74624000D03*
X110236000Y-72974000D03*
%TD*%
%TO.C,R13*%
X113284000Y-74624000D03*
X113284000Y-72974000D03*
%TD*%
D17*
%TO.C,C1*%
X109982000Y-70104000D03*
X108432000Y-70104000D03*
%TD*%
D10*
%TO.C,R19*%
X117094000Y-86423000D03*
X117094000Y-84773000D03*
%TD*%
%TO.C,R32*%
X126492000Y-74676000D03*
X126492000Y-73026000D03*
%TD*%
%TO.C,R20*%
X114554000Y-86423000D03*
X114554000Y-84773000D03*
%TD*%
%TO.C,R41*%
X122682000Y-86423000D03*
X122682000Y-84773000D03*
%TD*%
D16*
%TO.C,C7*%
X150844000Y-61950000D03*
X150844000Y-63500000D03*
%TD*%
D10*
%TO.C,R39*%
X127762000Y-86423000D03*
X127762000Y-84773000D03*
%TD*%
D17*
%TO.C,C3*%
X102108000Y-70104000D03*
X100558000Y-70104000D03*
%TD*%
D10*
%TO.C,R8*%
X104902000Y-74433000D03*
X104902000Y-72783000D03*
%TD*%
D18*
%TO.C,U4*%
X144369000Y-67310000D03*
X141319000Y-67310000D03*
X144369000Y-70660000D03*
X141319000Y-70660000D03*
D19*
X145124000Y-62685000D03*
X140564000Y-62685000D03*
%TD*%
D10*
%TO.C,R21*%
X112014000Y-86423000D03*
X112014000Y-84773000D03*
%TD*%
D20*
%TO.C,R30*%
X131572000Y-73026000D03*
X131572000Y-74676000D03*
%TD*%
D10*
%TO.C,R18*%
X119634000Y-86423000D03*
X119634000Y-84773000D03*
%TD*%
%TO.C,R17*%
X101092000Y-86423000D03*
X101092000Y-84773000D03*
%TD*%
D21*
%TO.C,U1*%
X99648000Y-58230000D03*
X99648000Y-58730000D03*
X99648000Y-59230000D03*
X99648000Y-59730000D03*
X99648000Y-60230000D03*
X99648000Y-60730000D03*
X99648000Y-61230000D03*
X99648000Y-61730000D03*
X99648000Y-62230000D03*
X99648000Y-62730000D03*
X99648000Y-63230000D03*
X99648000Y-63730000D03*
X99648000Y-64230000D03*
X99648000Y-64730000D03*
X99648000Y-65230000D03*
X99648000Y-65730000D03*
D22*
X101573000Y-67655000D03*
X102073000Y-67655000D03*
X102573000Y-67655000D03*
X103073000Y-67655000D03*
X103573000Y-67655000D03*
X104073000Y-67655000D03*
X104573000Y-67655000D03*
X105073000Y-67655000D03*
X105573000Y-67655000D03*
X106073000Y-67655000D03*
X106573000Y-67655000D03*
X107073000Y-67655000D03*
X107573000Y-67655000D03*
X108073000Y-67655000D03*
X108573000Y-67655000D03*
X109073000Y-67655000D03*
D21*
X110998000Y-65730000D03*
X110998000Y-65230000D03*
X110998000Y-64730000D03*
X110998000Y-64230000D03*
X110998000Y-63730000D03*
X110998000Y-63230000D03*
X110998000Y-62730000D03*
X110998000Y-62230000D03*
X110998000Y-61730000D03*
X110998000Y-61230000D03*
X110998000Y-60730000D03*
X110998000Y-60230000D03*
X110998000Y-59730000D03*
X110998000Y-59230000D03*
X110998000Y-58730000D03*
X110998000Y-58230000D03*
D22*
X109073000Y-56305000D03*
X108573000Y-56305000D03*
X108073000Y-56305000D03*
X107573000Y-56305000D03*
X107073000Y-56305000D03*
X106573000Y-56305000D03*
X106073000Y-56305000D03*
X105573000Y-56305000D03*
X105073000Y-56305000D03*
X104573000Y-56305000D03*
X104073000Y-56305000D03*
X103573000Y-56305000D03*
X103073000Y-56305000D03*
X102573000Y-56305000D03*
X102073000Y-56305000D03*
X101573000Y-56305000D03*
%TD*%
D23*
%TO.C,C2*%
X101707000Y-53956000D03*
X103257000Y-53956000D03*
%TD*%
D13*
%TO.C,D2*%
X162295000Y-71660000D03*
X160720000Y-71660000D03*
%TD*%
D16*
%TO.C,C8*%
X148844000Y-61950000D03*
X148844000Y-63500000D03*
%TD*%
D12*
%TO.C,U6*%
X120904000Y-76454000D03*
X119634000Y-76454000D03*
X118364000Y-76454000D03*
X117094000Y-76454000D03*
X115824000Y-76454000D03*
X114554000Y-76454000D03*
X113284000Y-76454000D03*
X112014000Y-76454000D03*
X112014000Y-82954000D03*
X113284000Y-82954000D03*
X114554000Y-82954000D03*
X115824000Y-82954000D03*
X117094000Y-82954000D03*
X118364000Y-82954000D03*
X119634000Y-82954000D03*
X120904000Y-82954000D03*
%TD*%
D10*
%TO.C,R15*%
X106172000Y-86423000D03*
X106172000Y-84773000D03*
%TD*%
D12*
%TO.C,U5*%
X110109000Y-76454000D03*
X108839000Y-76454000D03*
X107569000Y-76454000D03*
X106299000Y-76454000D03*
X105029000Y-76454000D03*
X103759000Y-76454000D03*
X102489000Y-76454000D03*
X101219000Y-76454000D03*
X101219000Y-82954000D03*
X102489000Y-82954000D03*
X103759000Y-82954000D03*
X105029000Y-82954000D03*
X106299000Y-82954000D03*
X107569000Y-82954000D03*
X108839000Y-82954000D03*
X110109000Y-82954000D03*
%TD*%
D24*
%TO.C,R5*%
X93996000Y-72136000D03*
X95646000Y-72136000D03*
%TD*%
D10*
%TO.C,R31*%
X129032000Y-74676000D03*
X129032000Y-73026000D03*
%TD*%
D14*
%TO.C,U2*%
X92202000Y-64770000D03*
X92202000Y-63500000D03*
X92202000Y-62230000D03*
X92202000Y-60960000D03*
X87252000Y-60960000D03*
X87252000Y-62230000D03*
X87252000Y-63500000D03*
X87252000Y-64770000D03*
%TD*%
D13*
%TO.C,D1*%
X162295000Y-73660000D03*
X160720000Y-73660000D03*
%TD*%
D16*
%TO.C,C9*%
X135844000Y-61950000D03*
X135844000Y-63500000D03*
%TD*%
D10*
%TO.C,R9*%
X102362000Y-74496000D03*
X102362000Y-72846000D03*
%TD*%
D23*
%TO.C,C5*%
X111548000Y-67980000D03*
X113098000Y-67980000D03*
%TD*%
D24*
%TO.C,R4*%
X94077000Y-56865000D03*
X95727000Y-56865000D03*
%TD*%
M02*
