%TF.GenerationSoftware,KiCad,Pcbnew,10.0.1*%
%TF.CreationDate,2026-04-17T14:28:08+09:00*%
%TF.ProjectId,Altair_solenoid_valve_V1,416c7461-6972-45f7-936f-6c656e6f6964,rev?*%
%TF.SameCoordinates,Original*%
%TF.FileFunction,Soldermask,Bot*%
%TF.FilePolarity,Negative*%
%FSLAX46Y46*%
G04 Gerber Fmt 4.6, Leading zero omitted, Abs format (unit mm)*
G04 Created by KiCad (PCBNEW 10.0.1) date 2026-04-17 14:28:08*
%MOMM*%
%LPD*%
G01*
G04 APERTURE LIST*
G04 Aperture macros list*
%AMRoundRect*
0 Rectangle with rounded corners*
0 $1 Rounding radius*
0 $2 $3 $4 $5 $6 $7 $8 $9 X,Y pos of 4 corners*
0 Add a 4 corners polygon primitive as box body*
4,1,4,$2,$3,$4,$5,$6,$7,$8,$9,$2,$3,0*
0 Add four circle primitives for the rounded corners*
1,1,$1+$1,$2,$3*
1,1,$1+$1,$4,$5*
1,1,$1+$1,$6,$7*
1,1,$1+$1,$8,$9*
0 Add four rect primitives between the rounded corners*
20,1,$1+$1,$2,$3,$4,$5,0*
20,1,$1+$1,$4,$5,$6,$7,0*
20,1,$1+$1,$6,$7,$8,$9,0*
20,1,$1+$1,$8,$9,$2,$3,0*%
G04 Aperture macros list end*
%ADD10R,1.700000X1.700000*%
%ADD11C,1.700000*%
%ADD12RoundRect,0.760000X1.140000X-1.140000X1.140000X1.140000X-1.140000X1.140000X-1.140000X-1.140000X0*%
%ADD13C,4.000000*%
%ADD14O,2.000000X2.800000*%
%ADD15RoundRect,0.250000X0.725000X-0.600000X0.725000X0.600000X-0.725000X0.600000X-0.725000X-0.600000X0*%
%ADD16O,1.950000X1.700000*%
%ADD17C,0.800000*%
%ADD18C,6.400000*%
%ADD19C,1.250000*%
%ADD20RoundRect,0.250000X-0.600000X-0.725000X0.600000X-0.725000X0.600000X0.725000X-0.600000X0.725000X0*%
%ADD21O,1.700000X1.950000*%
%ADD22C,1.400000*%
%ADD23RoundRect,0.770000X-0.980000X-0.980000X0.980000X-0.980000X0.980000X0.980000X-0.980000X0.980000X0*%
%ADD24C,3.500000*%
%ADD25RoundRect,0.250000X-0.725000X0.600000X-0.725000X-0.600000X0.725000X-0.600000X0.725000X0.600000X0*%
%ADD26RoundRect,0.250000X1.000000X0.650000X-1.000000X0.650000X-1.000000X-0.650000X1.000000X-0.650000X0*%
%ADD27RoundRect,0.150000X-0.587500X-0.150000X0.587500X-0.150000X0.587500X0.150000X-0.587500X0.150000X0*%
%ADD28RoundRect,0.200000X-0.275000X0.200000X-0.275000X-0.200000X0.275000X-0.200000X0.275000X0.200000X0*%
G04 APERTURE END LIST*
D10*
%TO.C,J2*%
X128778000Y-59690000D03*
D11*
X128778000Y-62230000D03*
%TD*%
D12*
%TO.C,J26*%
X137852700Y-95210000D03*
D13*
X137852700Y-90210000D03*
%TD*%
D14*
%TO.C,J10*%
X166000000Y-53000000D03*
D15*
X159500000Y-54250000D03*
D16*
X159500000Y-51750000D03*
%TD*%
D17*
%TO.C,H2*%
X71600000Y-44000000D03*
X72302944Y-42302944D03*
X72302944Y-45697056D03*
X74000000Y-41600000D03*
D18*
X74000000Y-44000000D03*
D17*
X74000000Y-46400000D03*
X75697056Y-42302944D03*
X75697056Y-45697056D03*
X76400000Y-44000000D03*
%TD*%
D19*
%TO.C,J12*%
X111510000Y-46050000D03*
D20*
X113110000Y-44450000D03*
D21*
X115610000Y-44450000D03*
X118110000Y-44450000D03*
X120610000Y-44450000D03*
%TD*%
D10*
%TO.C,J14*%
X88187000Y-56865000D03*
D11*
X90727000Y-56865000D03*
%TD*%
D12*
%TO.C,J24*%
X123582500Y-95210000D03*
D13*
X123582500Y-90210000D03*
%TD*%
D12*
%TO.C,J22*%
X109312400Y-95210000D03*
D13*
X109312400Y-90210000D03*
%TD*%
D19*
%TO.C,J13*%
X93980000Y-46050000D03*
D20*
X95580000Y-44450000D03*
D21*
X98080000Y-44450000D03*
X100580000Y-44450000D03*
X103080000Y-44450000D03*
%TD*%
D10*
%TO.C,J1*%
X123778000Y-59690000D03*
D11*
X123778000Y-62230000D03*
%TD*%
D17*
%TO.C,H1*%
X71600000Y-96000000D03*
X72302944Y-94302944D03*
X72302944Y-97697056D03*
X74000000Y-93600000D03*
D18*
X74000000Y-96000000D03*
D17*
X74000000Y-98400000D03*
X75697056Y-94302944D03*
X75697056Y-97697056D03*
X76400000Y-96000000D03*
%TD*%
D10*
%TO.C,J15*%
X88646000Y-72136000D03*
D11*
X91186000Y-72136000D03*
%TD*%
D22*
%TO.C,J16*%
X127342000Y-43681000D03*
X138342000Y-43681000D03*
D23*
X135342000Y-53681000D03*
D24*
X130342000Y-53681000D03*
%TD*%
D17*
%TO.C,H4*%
X163600000Y-96000000D03*
X164302944Y-94302944D03*
X164302944Y-97697056D03*
X166000000Y-93600000D03*
D18*
X166000000Y-96000000D03*
D17*
X166000000Y-98400000D03*
X167697056Y-94302944D03*
X167697056Y-97697056D03*
X168400000Y-96000000D03*
%TD*%
D12*
%TO.C,J20*%
X95042200Y-95210000D03*
D13*
X95042200Y-90210000D03*
%TD*%
D12*
%TO.C,J27*%
X144987800Y-95210000D03*
D13*
X144987800Y-90210000D03*
%TD*%
D14*
%TO.C,J5*%
X74000000Y-77250000D03*
D25*
X80500000Y-76000000D03*
D16*
X80500000Y-78500000D03*
%TD*%
D10*
%TO.C,J3*%
X121666000Y-69063000D03*
D11*
X124206000Y-69063000D03*
X126746000Y-69063000D03*
X129286000Y-69063000D03*
X131826000Y-69063000D03*
%TD*%
D12*
%TO.C,J25*%
X130717600Y-95210000D03*
D13*
X130717600Y-90210000D03*
%TD*%
D14*
%TO.C,J4*%
X74000000Y-62750000D03*
D25*
X80500000Y-61500000D03*
D16*
X80500000Y-64000000D03*
%TD*%
D12*
%TO.C,J21*%
X102177300Y-95210000D03*
D13*
X102177300Y-90210000D03*
%TD*%
D12*
%TO.C,J19*%
X87907100Y-95210000D03*
D13*
X87907100Y-90210000D03*
%TD*%
D22*
%TO.C,J17*%
X141654000Y-43688000D03*
X152654000Y-43688000D03*
D23*
X149654000Y-53688000D03*
D24*
X144654000Y-53688000D03*
%TD*%
D12*
%TO.C,J23*%
X116447500Y-95210000D03*
D13*
X116447500Y-90210000D03*
%TD*%
D12*
%TO.C,J28*%
X152122900Y-95210000D03*
D13*
X152122900Y-90210000D03*
%TD*%
D12*
%TO.C,J29*%
X159258000Y-95210000D03*
D13*
X159258000Y-90210000D03*
%TD*%
D14*
%TO.C,J11*%
X166000000Y-62000000D03*
D15*
X159500000Y-63250000D03*
D16*
X159500000Y-60750000D03*
%TD*%
D12*
%TO.C,J18*%
X80772000Y-95210000D03*
D13*
X80772000Y-90210000D03*
%TD*%
D17*
%TO.C,H3*%
X163600000Y-44000000D03*
X164302944Y-42302944D03*
X164302944Y-45697056D03*
X166000000Y-41600000D03*
D18*
X166000000Y-44000000D03*
D17*
X166000000Y-46400000D03*
X167697056Y-42302944D03*
X167697056Y-45697056D03*
X168400000Y-44000000D03*
%TD*%
D26*
%TO.C,D15*%
X154146000Y-85598000D03*
X150146000Y-85598000D03*
%TD*%
D27*
%TO.C,Q8*%
X133682500Y-93459000D03*
X133682500Y-91559000D03*
X135557500Y-92509000D03*
%TD*%
%TO.C,Q10*%
X147906500Y-93340000D03*
X147906500Y-91440000D03*
X149781500Y-92390000D03*
%TD*%
%TO.C,Q1*%
X83644500Y-93406000D03*
X83644500Y-91506000D03*
X85519500Y-92456000D03*
%TD*%
%TO.C,Q12*%
X163400500Y-91120000D03*
X163400500Y-89220000D03*
X165275500Y-90170000D03*
%TD*%
D28*
%TO.C,R22*%
X109058400Y-81471000D03*
X109058400Y-83121000D03*
%TD*%
%TO.C,R27*%
X117024700Y-81471000D03*
X117024700Y-83121000D03*
%TD*%
D26*
%TO.C,D9*%
X111474000Y-85598000D03*
X107474000Y-85598000D03*
%TD*%
D28*
%TO.C,R28*%
X114369300Y-81471000D03*
X114369300Y-83121000D03*
%TD*%
D26*
%TO.C,D14*%
X147034000Y-85598000D03*
X143034000Y-85598000D03*
%TD*%
D27*
%TO.C,Q11*%
X155018500Y-93459000D03*
X155018500Y-91559000D03*
X156893500Y-92509000D03*
%TD*%
%TO.C,Q2*%
X90756500Y-93406000D03*
X90756500Y-91506000D03*
X92631500Y-92456000D03*
%TD*%
D26*
%TO.C,D16*%
X161258000Y-85598000D03*
X157258000Y-85598000D03*
%TD*%
D28*
%TO.C,R25*%
X101092000Y-81471000D03*
X101092000Y-83121000D03*
%TD*%
%TO.C,R48*%
X124991100Y-81471000D03*
X124991100Y-83121000D03*
%TD*%
D26*
%TO.C,D5*%
X82518000Y-85598000D03*
X78518000Y-85598000D03*
%TD*%
D27*
%TO.C,Q5*%
X112346500Y-93472000D03*
X112346500Y-91572000D03*
X114221500Y-92522000D03*
%TD*%
D28*
%TO.C,R26*%
X119680200Y-81471000D03*
X119680200Y-83121000D03*
%TD*%
%TO.C,R46*%
X130302000Y-81471000D03*
X130302000Y-83121000D03*
%TD*%
D26*
%TO.C,D6*%
X89884000Y-85598000D03*
X85884000Y-85598000D03*
%TD*%
D28*
%TO.C,R47*%
X127646500Y-81471000D03*
X127646500Y-83121000D03*
%TD*%
%TO.C,R29*%
X111713800Y-81471000D03*
X111713800Y-83121000D03*
%TD*%
D26*
%TO.C,D8*%
X104108000Y-85598000D03*
X100108000Y-85598000D03*
%TD*%
D28*
%TO.C,R23*%
X106402900Y-81471000D03*
X106402900Y-83121000D03*
%TD*%
D27*
%TO.C,Q7*%
X126570500Y-93472000D03*
X126570500Y-91572000D03*
X128445500Y-92522000D03*
%TD*%
D26*
%TO.C,D11*%
X125698000Y-85598000D03*
X121698000Y-85598000D03*
%TD*%
D28*
%TO.C,R49*%
X122335600Y-81471000D03*
X122335600Y-83121000D03*
%TD*%
D27*
%TO.C,Q4*%
X104980500Y-93406000D03*
X104980500Y-91506000D03*
X106855500Y-92456000D03*
%TD*%
D26*
%TO.C,D10*%
X118586000Y-85598000D03*
X114586000Y-85598000D03*
%TD*%
%TO.C,D12*%
X132778000Y-85598000D03*
X128778000Y-85598000D03*
%TD*%
%TO.C,D7*%
X96996000Y-85598000D03*
X92996000Y-85598000D03*
%TD*%
D27*
%TO.C,Q3*%
X97868500Y-93406000D03*
X97868500Y-91506000D03*
X99743500Y-92456000D03*
%TD*%
D28*
%TO.C,R24*%
X103747500Y-81471000D03*
X103747500Y-83121000D03*
%TD*%
D27*
%TO.C,Q9*%
X140794500Y-93406000D03*
X140794500Y-91506000D03*
X142669500Y-92456000D03*
%TD*%
D26*
%TO.C,D13*%
X139922000Y-85598000D03*
X135922000Y-85598000D03*
%TD*%
D27*
%TO.C,Q6*%
X119458500Y-93406000D03*
X119458500Y-91506000D03*
X121333500Y-92456000D03*
%TD*%
M02*
